<!-- Generated by IcoMoon.io -->
<svg version="1.1" xmlns="http://www.w3.org/2000/svg" width="100" height="100" viewBox="0 0 384 448">
<title></title>
<g id="icomoon-ignore">
</g>
<path d="M296 224c0 5.75-3 11-8 13.75l-136 80c-2.5 1.5-5.25 2.25-8 2.25s-5.5-0.75-8-2c-5-3-8-8.25-8-14v-160c0-5.75 3-11 8-14 5-2.75 11.25-2.75 16 0.25l136 80c5 2.75 8 8 8 13.75zM328 224c0-75-61-136-136-136s-136 61-136 136 61 136 136 136 136-61 136-136zM384 224c0 106-86 192-192 192s-192-86-192-192 86-192 192-192 192 86 192 192z"></path>
</svg>
